HIERARCHY
ROOT Hips
{
	OFFSET 0.000000 0.000000 0.000000
	CHANNELS 6 Xposition Yposition Zposition Zrotation Yrotation Xrotation 
	JOINT LowerBack
	{
		OFFSET 0.000000 0.000000 0.000000
		CHANNELS 3 Zrotation Yrotation Xrotation
		JOINT Spine
		{
			OFFSET 0.028270 2.035590 -0.193380
			CHANNELS 3 Zrotation Yrotation Xrotation
			JOINT Spine1
			{
				OFFSET 0.056720 2.048850 -0.042750
				CHANNELS 3 Zrotation Yrotation Xrotation
				JOINT Neck
				{
					OFFSET 0.000000 0.000000 0.000000
					CHANNELS 3 Zrotation Yrotation Xrotation
					JOINT Neck1
					{
						OFFSET -0.054170 1.746240 0.172020
						CHANNELS 3 Zrotation Yrotation Xrotation
						JOINT Head
						{
							OFFSET 0.104070 1.761360 -0.123970
							CHANNELS 3 Zrotation Yrotation Xrotation
							End Site
							{
								OFFSET 0.000000 0.000000 0.000000
							}
						}
					}
				}
				JOINT LeftShoulder
				{
					OFFSET 0.000000 0.000000 0.000000
					CHANNELS 3 Zrotation Yrotation Xrotation
					JOINT LeftArm
					{
						OFFSET 3.362410 1.200890 -0.311210
						CHANNELS 3 Zrotation Yrotation Xrotation
						JOINT LeftForeArm
						{
							OFFSET 4.983000 -0.000000 -0.000000
							CHANNELS 3 Zrotation Yrotation Xrotation
							JOINT LeftHand
							{
								OFFSET 3.483560 -0.000000 -0.000000
								CHANNELS 3 Zrotation Yrotation Xrotation
								JOINT LeftFingerBase
								{
									OFFSET 0.000000 0.000000 0.000000
									CHANNELS 3 Zrotation Yrotation Xrotation
									JOINT LeftHandIndex1
									{
										OFFSET 0.715260 -0.000000 -0.000000
										CHANNELS 3 Zrotation Yrotation Xrotation
										End Site
										{
											OFFSET 0.000000 0.000000 0.000000
										}
									}
								}
								JOINT LThumb
								{
									OFFSET 0.000000 0.000000 0.000000
									CHANNELS 3 Zrotation Yrotation Xrotation
									End Site
									{
										OFFSET 0.000000 0.000000 0.000000
									}
								}
							}
						}
					}
				}
				JOINT RightShoulder
				{
					OFFSET 0.000000 0.000000 0.000000
					CHANNELS 3 Zrotation Yrotation Xrotation
					JOINT RightArm
					{
						OFFSET -3.136600 1.374050 -0.404650
						CHANNELS 3 Zrotation Yrotation Xrotation
						JOINT RightForeArm
						{
							OFFSET -5.241900 -0.000000 -0.000000
							CHANNELS 3 Zrotation Yrotation Xrotation
							JOINT RightHand
							{
								OFFSET -3.444170 -0.000000 -0.000000
								CHANNELS 3 Zrotation Yrotation Xrotation
								JOINT RightFingerBase
								{
									OFFSET 0.000000 0.000000 0.000000
									CHANNELS 3 Zrotation Yrotation Xrotation
									JOINT RightHandIndex1
									{
										OFFSET -0.622530 -0.000000 -0.000000
										CHANNELS 3 Zrotation Yrotation Xrotation
										End Site
										{
											OFFSET 0.000000 0.000000 0.000000
										}
									}
								}
								JOINT RThumb
								{
									OFFSET 0.000000 0.000000 0.000000
									CHANNELS 3 Zrotation Yrotation Xrotation
									End Site
									{
										OFFSET 0.000000 0.000000 0.000000
									}
								}
							}
						}
					}
				}
			}
		}
	}
}
}
MOTION
Frames: 15
Frame Time: 0.008333
3.391316 17.185840 1.142598 -179.657122 -69.936084 -170.974657 1.197997 0.290782 -4.722834 -0.515937 0.052958 -3.617943 -6.587256 0.311732 -0.347838 7.704251 -7.214885 -0.384978 -4.134699 -0.384275 1.959902 0.000000 0.000000 0.000000 12.912156 9.634651 -3.282199 -84.444792 -19.643050 15.633715 -178.902560 -50.743162 179.928236 4.925332 -5.397588 -0.279456 -0.102255 1.077149 -0.000000 0.000000 0.000000 0.000000 0.000000 0.000000 0.000000 1.208293 -4.347582 -4.304216 90.374681 24.227198 33.858721 -179.638824 57.622875 179.901585 -6.082453 14.153707 -0.823503 0.053117 -1.156888 -0.000000 0.000000 0.000000 0.000000 0.000000 0.000000 0.000000 
3.392265 17.185971 1.140862 -179.553991 -69.676974 -171.070836 1.291277 0.311474 -4.748975 -0.522362 0.061419 -3.625665 -6.673321 0.324245 -0.369389 7.704262 -7.214993 -0.331143 -4.128475 -0.384319 1.975129 0.000000 0.000000 0.000000 12.878821 9.569099 -3.321686 -83.694815 -20.374287 14.918367 -178.874202 -51.096734 179.926216 5.098982 -5.244474 -0.282588 -0.112682 1.070121 -0.000000 0.000000 0.000000 0.000000 0.000000 0.000000 0.000000 1.257626 -4.369547 -4.280961 90.455654 24.270030 34.031621 -179.623203 57.670073 179.901202 -6.082602 14.158547 -0.823648 0.051710 -1.156428 -0.000000 0.000000 0.000000 0.000000 0.000000 0.000000 0.000000 
3.394212 17.186125 1.139129 -179.463074 -69.433532 -171.169190 1.395767 0.338264 -4.772576 -0.534890 0.074115 -3.632650 -6.797909 0.343176 -0.394354 7.721480 -7.209725 -0.254665 -4.115080 -0.384045 1.996453 0.000000 0.000000 0.000000 12.791042 9.505330 -3.368991 -82.730096 -21.425756 14.155400 -178.817089 -51.642275 179.924646 5.245718 -5.085511 -0.283543 -0.123555 1.063241 -0.000000 0.000000 0.000000 0.000000 0.000000 0.000000 0.000000 1.318788 -4.393735 -4.252529 90.542259 24.291503 34.185897 -179.594366 57.710014 179.900565 -6.080261 14.159001 -0.823015 0.049064 -1.155535 -0.000000 0.000000 0.000000 0.000000 0.000000 0.000000 0.000000 
3.397281 17.186220 1.137517 -179.371830 -69.211729 -171.283046 1.513532 0.369412 -4.793193 -0.552067 0.089252 -3.642379 -6.954904 0.365701 -0.438163 7.754779 -7.197681 -0.141986 -4.094717 -0.383645 2.027905 0.000000 0.000000 0.000000 12.671505 9.371426 -3.417190 -81.534664 -22.744695 13.299352 -178.755587 -52.374802 179.923412 5.362541 -4.936903 -0.282928 -0.132956 1.056593 -0.000000 0.000000 0.000000 0.000000 0.000000 0.000000 0.000000 1.389896 -4.415438 -4.213090 90.624018 24.288176 34.318030 -179.551990 57.751203 179.899594 -6.082313 14.156306 -0.822699 0.045383 -1.154176 -0.000000 0.000000 0.000000 0.000000 0.000000 0.000000 0.000000 
3.401334 17.186345 1.135894 -179.290253 -69.019988 -171.399628 1.638726 0.403175 -4.813868 -0.576039 0.105220 -3.652915 -7.152213 0.390637 -0.490285 7.814981 -7.179418 -0.001869 -4.064555 -0.382839 2.067019 0.000000 0.000000 0.000000 12.498724 9.202662 -3.459788 -80.073721 -24.398342 12.382404 -178.691084 -53.352363 179.922626 5.447774 -4.766327 -0.279149 -0.140991 1.048499 -0.000000 0.000000 0.000000 0.000000 0.000000 0.000000 0.000000 1.477769 -4.430794 -4.167349 90.700353 24.256274 34.420366 -179.495758 57.784780 179.898317 -6.088239 14.148053 -0.822402 0.040693 -1.152259 -0.000000 0.000000 0.000000 0.000000 0.000000 0.000000 0.000000 
3.406306 17.186486 1.134276 -179.212520 -68.863869 -171.523111 1.768181 0.435778 -4.834962 -0.606205 0.118567 -3.664999 -7.384742 0.413777 -0.553232 7.905266 -7.154985 0.165173 -4.023677 -0.381600 2.113823 0.000000 0.000000 0.000000 12.280663 8.975382 -3.486568 -78.329738 -26.363638 11.386578 -178.645279 -54.590274 179.922177 5.504076 -4.568436 -0.272209 -0.146394 1.038296 -0.000000 0.000000 0.000000 0.000000 0.000000 0.000000 0.000000 1.583276 -4.435068 -4.115699 90.763459 24.196405 34.490982 -179.426873 57.812722 179.896738 -6.101298 14.134496 -0.822722 0.035234 -1.149738 -0.000000 0.000000 0.000000 0.000000 0.000000 0.000000 0.000000 
3.412296 17.186659 1.132618 -179.140172 -68.748803 -171.651875 1.894847 0.462401 -4.856930 -0.642272 0.125185 -3.678555 -7.645864 0.430287 -0.626042 8.030132 -7.124996 0.353532 -3.971252 -0.379854 2.166884 0.000000 0.000000 0.000000 12.024146 8.681263 -3.487461 -76.289611 -28.617472 10.297867 -178.638688 -56.110091 179.921943 5.535979 -4.333646 -0.261709 -0.148038 1.025365 -0.000000 0.000000 0.000000 0.000000 0.000000 0.000000 0.000000 1.708758 -4.424989 -4.060638 90.806465 24.111562 34.529187 -179.347267 57.833360 179.894904 -6.122561 14.116339 -0.823757 0.029241 -1.146610 -0.000000 0.000000 0.000000 0.000000 0.000000 0.000000 0.000000 
3.418893 17.186944 1.130896 -179.069726 -68.678952 -171.781824 2.011883 0.478307 -4.881751 -0.684241 0.120908 -3.690973 -7.930965 0.435810 -0.695513 8.196026 -7.098266 0.545135 -3.906260 -0.377369 2.221213 0.000000 0.000000 0.000000 11.715712 8.356311 -3.453537 -73.934542 -31.176904 9.122790 -178.682617 -57.955628 179.921814 5.551445 -4.038433 -0.246943 -0.145572 1.008926 -0.000000 0.000000 0.000000 0.000000 0.000000 0.000000 0.000000 1.861727 -4.407375 -4.008733 90.825640 24.014791 34.543957 -179.261831 57.844319 179.892933 -6.152752 14.093638 -0.825704 0.023206 -1.142823 -0.000000 0.000000 0.000000 0.000000 0.000000 0.000000 0.000000 
3.426279 17.187177 1.129318 -178.983156 -68.655488 -171.932026 2.110371 0.478144 -4.902209 -0.728201 0.102345 -3.707341 -8.211458 0.424335 -0.788054 8.396054 -7.059859 0.752782 -3.829792 -0.374439 2.280658 0.000000 0.000000 0.000000 11.435565 7.913669 -3.384268 -71.318508 -33.853867 7.770186 -178.808914 -60.098742 179.921600 5.550739 -3.727432 -0.230406 -0.135987 0.990843 -0.000000 0.000000 0.000000 0.000000 0.000000 0.000000 0.000000 2.024211 -4.370534 -3.955334 90.805036 23.894689 34.525804 -179.168383 57.846657 179.890789 -6.190923 14.070572 -0.828663 0.016868 -1.138398 -0.000000 0.000000 0.000000 0.000000 0.000000 0.000000 0.000000 
3.434017 17.187633 1.127597 -178.896552 -68.680394 -172.076913 2.180453 0.458009 -4.923954 -0.776085 0.066062 -3.720184 -8.491174 0.393691 -0.867436 8.641000 -7.035382 0.935369 -3.741613 -0.370591 2.333582 0.000000 0.000000 0.000000 11.118315 7.486125 -3.278426 -68.404973 -36.772799 6.296939 -178.997521 -62.635496 179.921294 5.546869 -3.350359 -0.210185 -0.121115 0.970209 -0.000000 0.000000 0.000000 0.000000 0.000000 0.000000 0.000000 2.220199 -4.342312 -3.913761 90.749555 23.784358 34.502617 -179.078151 57.837491 179.888760 -6.234778 14.045823 -0.832330 0.011161 -1.133265 -0.000000 0.000000 0.000000 0.000000 0.000000 0.000000 0.000000 
3.442038 17.188169 1.126006 -178.785944 -68.751881 -172.237310 2.214534 0.414583 -4.938257 -0.822904 0.010853 -3.735661 -8.738692 0.339857 -0.964656 8.919596 -7.009222 1.107003 -3.644104 -0.366199 2.384183 0.000000 0.000000 0.000000 10.861038 6.997777 -3.152922 -65.299024 -39.714247 4.616041 -179.253800 -65.542081 179.920877 5.537279 -2.958179 -0.188868 -0.098973 0.949467 -0.000000 0.000000 0.000000 0.000000 0.000000 0.000000 0.000000 2.426493 -4.315904 -3.877740 90.646986 23.669582 34.466153 -178.988742 57.814912 179.886807 -6.281284 14.023909 -0.836505 0.005712 -1.127500 -0.000000 0.000000 0.000000 0.000000 0.000000 0.000000 0.000000 
3.450298 17.188733 1.124628 -178.645851 -68.865605 -172.416066 2.208222 0.345380 -4.941168 -0.865857 -0.064674 -3.755046 -8.939195 0.260323 -1.086040 9.225813 -6.982419 1.261963 -3.539551 -0.361359 2.430957 0.000000 0.000000 0.000000 10.704989 6.463196 -3.029087 -62.078524 -42.593051 2.716279 -179.550603 -68.848240 179.920290 5.532602 -2.577348 -0.168445 -0.070507 0.930176 -0.000000 0.000000 0.000000 0.000000 0.000000 0.000000 0.000000 2.637739 -4.299091 -3.847463 90.496180 23.556197 34.425480 -178.903788 57.778895 179.885042 -6.325370 14.006759 -0.840587 0.000602 -1.121175 -0.000000 0.000000 0.000000 0.000000 0.000000 0.000000 0.000000 
3.458401 17.189560 1.123293 -178.484854 -69.016613 -172.597461 2.161716 0.248971 -4.933002 -0.904294 -0.162071 -3.775018 -9.094168 0.154196 -1.215946 9.556427 -6.968011 1.379412 -3.430961 -0.355982 2.467991 0.000000 0.000000 0.000000 10.609857 5.969590 -2.920506 -58.752781 -45.467252 0.636090 -179.841252 -72.624758 179.919574 5.540124 -2.210225 -0.149203 -0.038133 0.913087 -0.000000 0.000000 0.000000 0.000000 0.000000 0.000000 0.000000 2.863764 -4.307519 -3.827985 90.306567 23.465356 34.403924 -178.831888 57.731126 179.883668 -6.363571 13.994055 -0.844173 -0.003575 -1.114417 -0.000000 0.000000 0.000000 0.000000 0.000000 0.000000 0.000000 
3.466349 17.190574 1.122225 -178.295127 -69.196747 -172.790257 2.079426 0.124617 -4.908991 -0.934486 -0.281932 -3.798896 -9.192948 0.019851 -1.369573 9.897666 -6.959049 1.467143 -3.322033 -0.350371 2.497593 0.000000 0.000000 0.000000 10.626923 5.497360 -2.850743 -55.416178 -48.227885 -1.629694 179.915484 -76.877774 179.918594 5.568234 -1.903916 -0.133635 -0.003424 0.899601 -0.000000 0.000000 0.000000 0.000000 0.000000 0.000000 0.000000 3.090980 -4.335704 -3.814916 90.082275 23.393558 34.403627 -178.774236 57.675235 179.882708 -6.391040 13.987662 -0.846863 -0.006976 -1.107459 -0.000000 0.000000 0.000000 0.000000 0.000000 0.000000 0.000000 
3.473978 17.191779 1.121430 -178.076069 -69.397304 -172.994329 1.969967 -0.027647 -4.868098 -0.954100 -0.425018 -3.827315 -9.235685 -0.143237 -1.548929 10.238026 -6.953384 1.526986 -3.216373 -0.344727 2.520274 0.000000 0.000000 0.000000 10.768921 5.055525 -2.834039 -52.117394 -50.842131 -4.055069 179.765474 -81.622906 179.917109 5.628086 -1.694714 -0.123740 0.031206 0.890325 -0.000000 0.000000 0.000000 0.000000 0.000000 0.000000 0.000000 3.313125 -4.378668 -3.806742 89.833400 23.344638 34.431271 -178.733599 57.613671 179.882212 -6.404513 13.987217 -0.848056 -0.009522 -1.100565 -0.000000 0.000000 0.000000 0.000000 0.000000 0.000000 0.000000 
